M48
;GenerationSoftware,Autodesk,EAGLE,9.4.0*%
;CreationDate,2019-06-02T08:09:06Z*%
FMAT,2
ICI,OFF
METRIC,TZ,000.000
T2C0.813
T1C1.016
%
G90
M71
T1
X6223Y1270
X11303Y6350
X13843Y6350
X13589Y3810
X13843Y1270
X11049Y3810
X11303Y1270
X8763Y6350
X8509Y3810
X8763Y1270
X6223Y6350
X5969Y3810
T2
X15240Y11430
X15240Y13970
X15240Y16510
X15240Y19050
X15240Y21590
X15240Y24130
X15240Y26670
X15240Y29210
X15240Y31750
X15240Y34290
X15240Y36830
X15240Y39370
X2540Y41910
X2540Y39370
X2540Y36830
X2540Y34290
X2540Y31750
X2540Y29210
X2540Y26670
X2540Y24130
X0Y19050
X2540Y19050
X2540Y16510
X2540Y13970
X2540Y11430
X2540Y8890
X17780Y8890
X17780Y11430
X17780Y13970
X17780Y16510
X17780Y19050
X17780Y21590
X17780Y24130
X17780Y26670
X17780Y29210
X0Y39370
X17780Y34290
X17780Y36830
X17780Y39370
X17780Y41910
X0Y36830
X0Y34290
X0Y31750
X2540Y21590
X0Y29210
X0Y26670
X0Y24130
X0Y21590
X0Y16510
X0Y13970
X0Y11430
X17780Y31750
M30