G04 EAGLE Gerber RS-274X export*
G75*
%MOMM*%
%FSLAX34Y34*%
%LPD*%
%INTop Copper*%
%IPPOS*%
%AMOC8*
5,1,8,0,0,1.08239X$1,22.5*%
G01*
%ADD10C,0.406400*%
%ADD11C,0.254000*%
%ADD12P,1.429621X8X22.500000*%
%ADD13R,1.320800X1.320800*%
%ADD14R,1.524000X1.524000*%
%ADD15P,1.649562X8X22.500000*%
%ADD16C,0.381000*%
%ADD17C,0.203200*%


D10*
X-11212Y431800D02*
X-11210Y431919D01*
X-11204Y432039D01*
X-11194Y432158D01*
X-11180Y432276D01*
X-11162Y432394D01*
X-11141Y432512D01*
X-11115Y432628D01*
X-11086Y432744D01*
X-11052Y432859D01*
X-11015Y432972D01*
X-10974Y433084D01*
X-10930Y433195D01*
X-10882Y433305D01*
X-10830Y433412D01*
X-10775Y433518D01*
X-10716Y433622D01*
X-10653Y433724D01*
X-10588Y433823D01*
X-10519Y433921D01*
X-10447Y434016D01*
X-10372Y434109D01*
X-10293Y434199D01*
X-10212Y434287D01*
X-10128Y434371D01*
X-10041Y434453D01*
X-9952Y434532D01*
X-9860Y434608D01*
X-9765Y434681D01*
X-9668Y434751D01*
X-9569Y434817D01*
X-9467Y434880D01*
X-9364Y434940D01*
X-9259Y434996D01*
X-9152Y435049D01*
X-9043Y435098D01*
X-8932Y435144D01*
X-8820Y435185D01*
X-8707Y435223D01*
X-8593Y435258D01*
X-8477Y435288D01*
X-8361Y435315D01*
X-8244Y435337D01*
X-8126Y435356D01*
X-8007Y435371D01*
X-7888Y435382D01*
X-7769Y435389D01*
X-7650Y435392D01*
X-7530Y435391D01*
X-7411Y435386D01*
X-7292Y435377D01*
X-7173Y435364D01*
X-7055Y435347D01*
X-6938Y435327D01*
X-6821Y435302D01*
X-6705Y435273D01*
X-6590Y435241D01*
X-6476Y435205D01*
X-6363Y435165D01*
X-6252Y435121D01*
X-6143Y435074D01*
X-6035Y435023D01*
X-5928Y434969D01*
X-5824Y434911D01*
X-5722Y434849D01*
X-5621Y434785D01*
X-5523Y434716D01*
X-5427Y434645D01*
X-5334Y434571D01*
X-5243Y434493D01*
X-5155Y434413D01*
X-5070Y434329D01*
X-4987Y434243D01*
X-4907Y434154D01*
X-4830Y434063D01*
X-4757Y433969D01*
X-4686Y433872D01*
X-4619Y433774D01*
X-4555Y433673D01*
X-4494Y433570D01*
X-4437Y433465D01*
X-4384Y433359D01*
X-4334Y433250D01*
X-4287Y433140D01*
X-4245Y433029D01*
X-4206Y432916D01*
X-4170Y432802D01*
X-4139Y432686D01*
X-4112Y432570D01*
X-4088Y432453D01*
X-4068Y432335D01*
X-4052Y432217D01*
X-4040Y432098D01*
X-4032Y431979D01*
X-4028Y431860D01*
X-4028Y431740D01*
X-4032Y431621D01*
X-4040Y431502D01*
X-4052Y431383D01*
X-4068Y431265D01*
X-4088Y431147D01*
X-4112Y431030D01*
X-4139Y430914D01*
X-4170Y430798D01*
X-4206Y430684D01*
X-4245Y430571D01*
X-4287Y430460D01*
X-4334Y430350D01*
X-4384Y430241D01*
X-4437Y430135D01*
X-4494Y430030D01*
X-4555Y429927D01*
X-4619Y429826D01*
X-4686Y429728D01*
X-4757Y429631D01*
X-4830Y429537D01*
X-4907Y429446D01*
X-4987Y429357D01*
X-5070Y429271D01*
X-5155Y429187D01*
X-5243Y429107D01*
X-5334Y429029D01*
X-5427Y428955D01*
X-5523Y428884D01*
X-5621Y428815D01*
X-5722Y428751D01*
X-5824Y428689D01*
X-5928Y428631D01*
X-6035Y428577D01*
X-6143Y428526D01*
X-6252Y428479D01*
X-6363Y428435D01*
X-6476Y428395D01*
X-6590Y428359D01*
X-6705Y428327D01*
X-6821Y428298D01*
X-6938Y428273D01*
X-7055Y428253D01*
X-7173Y428236D01*
X-7292Y428223D01*
X-7411Y428214D01*
X-7530Y428209D01*
X-7650Y428208D01*
X-7769Y428211D01*
X-7888Y428218D01*
X-8007Y428229D01*
X-8126Y428244D01*
X-8244Y428263D01*
X-8361Y428285D01*
X-8477Y428312D01*
X-8593Y428342D01*
X-8707Y428377D01*
X-8820Y428415D01*
X-8932Y428456D01*
X-9043Y428502D01*
X-9152Y428551D01*
X-9259Y428604D01*
X-9364Y428660D01*
X-9467Y428720D01*
X-9569Y428783D01*
X-9668Y428849D01*
X-9765Y428919D01*
X-9860Y428992D01*
X-9952Y429068D01*
X-10041Y429147D01*
X-10128Y429229D01*
X-10212Y429313D01*
X-10293Y429401D01*
X-10372Y429491D01*
X-10447Y429584D01*
X-10519Y429679D01*
X-10588Y429777D01*
X-10653Y429876D01*
X-10716Y429978D01*
X-10775Y430082D01*
X-10830Y430188D01*
X-10882Y430295D01*
X-10930Y430405D01*
X-10974Y430516D01*
X-11015Y430628D01*
X-11052Y430741D01*
X-11086Y430856D01*
X-11115Y430972D01*
X-11141Y431088D01*
X-11162Y431206D01*
X-11180Y431324D01*
X-11194Y431442D01*
X-11204Y431561D01*
X-11210Y431681D01*
X-11212Y431800D01*
D11*
X57150Y95263D02*
X57150Y80010D01*
X64777Y80010D01*
X67319Y82552D01*
X67319Y92721D01*
X64777Y95263D01*
X57150Y95263D01*
X90177Y95263D02*
X92719Y92721D01*
X90177Y95263D02*
X85092Y95263D01*
X82550Y92721D01*
X82550Y82552D01*
X85092Y80010D01*
X90177Y80010D01*
X92719Y82552D01*
X107950Y80010D02*
X107950Y95263D01*
X115577Y95263D01*
X118119Y92721D01*
X118119Y90179D01*
X115577Y87637D01*
X118119Y85094D01*
X118119Y82552D01*
X115577Y80010D01*
X107950Y80010D01*
X107950Y87637D02*
X115577Y87637D01*
X133350Y90179D02*
X133350Y80010D01*
X133350Y90179D02*
X138434Y95263D01*
X143519Y90179D01*
X143519Y80010D01*
X143519Y87637D02*
X133350Y87637D01*
X16510Y41919D02*
X16510Y31750D01*
X16510Y41919D02*
X21594Y47003D01*
X26679Y41919D01*
X26679Y31750D01*
X26679Y39377D02*
X16510Y39377D01*
X32882Y41919D02*
X43050Y31750D01*
X32882Y31750D02*
X43050Y41919D01*
X-8890Y59690D02*
X-8890Y74943D01*
X-8890Y67317D02*
X1279Y67317D01*
X1279Y74943D02*
X1279Y59690D01*
X7482Y69859D02*
X10024Y69859D01*
X10024Y59690D01*
X7482Y59690D02*
X12566Y59690D01*
X10024Y74943D02*
X10024Y77485D01*
X23480Y54606D02*
X26022Y54606D01*
X28565Y57148D01*
X28565Y69859D01*
X20938Y69859D01*
X18396Y67317D01*
X18396Y62232D01*
X20938Y59690D01*
X28565Y59690D01*
X34768Y59690D02*
X34768Y74943D01*
X37310Y69859D02*
X34768Y67317D01*
X37310Y69859D02*
X42394Y69859D01*
X44936Y67317D01*
X44936Y59690D01*
X1270Y21603D02*
X1270Y6350D01*
X11439Y6350D01*
X20184Y6350D02*
X25268Y6350D01*
X27810Y8892D01*
X27810Y13977D01*
X25268Y16519D01*
X20184Y16519D01*
X17642Y13977D01*
X17642Y8892D01*
X20184Y6350D01*
X34013Y8892D02*
X34013Y16519D01*
X34013Y8892D02*
X36555Y6350D01*
X39097Y8892D01*
X41640Y6350D01*
X44182Y8892D01*
X44182Y16519D01*
X153670Y31750D02*
X153670Y41919D01*
X158754Y47003D01*
X163839Y41919D01*
X163839Y31750D01*
X163839Y39377D02*
X153670Y39377D01*
X170042Y41919D02*
X180210Y31750D01*
X170042Y31750D02*
X180210Y41919D01*
X161290Y67319D02*
X166374Y72403D01*
X166374Y57150D01*
X161290Y57150D02*
X171459Y57150D01*
X161290Y21601D02*
X161290Y11432D01*
X161290Y21601D02*
X163832Y24143D01*
X168917Y24143D01*
X171459Y21601D01*
X171459Y11432D01*
X168917Y8890D01*
X163832Y8890D01*
X161290Y11432D01*
X171459Y21601D01*
D12*
X0Y393700D03*
D13*
X0Y368300D03*
X0Y342900D03*
X0Y317500D03*
X0Y292100D03*
X0Y266700D03*
X0Y241300D03*
X0Y215900D03*
X0Y190500D03*
X0Y165100D03*
X0Y139700D03*
X0Y114300D03*
X152400Y114300D03*
X152400Y139700D03*
X152400Y165100D03*
X152400Y190500D03*
X152400Y215900D03*
X152400Y241300D03*
X152400Y266700D03*
X152400Y292100D03*
X152400Y317500D03*
X152400Y342900D03*
X152400Y368300D03*
X152400Y393700D03*
X25400Y419100D03*
D12*
X25400Y393700D03*
X25400Y368300D03*
X25400Y342900D03*
X25400Y317500D03*
X25400Y292100D03*
X25400Y266700D03*
X25400Y241300D03*
X25400Y215900D03*
X25400Y190500D03*
X25400Y165100D03*
X25400Y139700D03*
X25400Y114300D03*
X25400Y88900D03*
X177800Y88900D03*
X177800Y114300D03*
X177800Y139700D03*
X177800Y165100D03*
X177800Y190500D03*
X177800Y215900D03*
X177800Y241300D03*
X177800Y266700D03*
X177800Y292100D03*
X177800Y317500D03*
X177800Y342900D03*
X177800Y368300D03*
X177800Y393700D03*
X177800Y419100D03*
D14*
X138430Y63500D03*
D15*
X135890Y38100D03*
X138430Y12700D03*
D14*
X113030Y63500D03*
D15*
X110490Y38100D03*
X113030Y12700D03*
D14*
X87630Y63500D03*
D15*
X85090Y38100D03*
X87630Y12700D03*
D14*
X62230Y63500D03*
D15*
X59690Y38100D03*
X62230Y12700D03*
D11*
X35306Y389597D02*
X35306Y393410D01*
X46914Y381802D01*
X46914Y71804D01*
X46830Y71888D01*
X44288Y74431D01*
X39339Y74431D01*
X39339Y76837D01*
X36661Y79515D01*
X32874Y79515D01*
X30196Y76837D01*
X30196Y74431D01*
X19044Y74431D01*
X17279Y72665D01*
X16366Y71752D01*
X16366Y71752D01*
X15589Y70976D01*
X14596Y69982D01*
X14596Y71752D01*
X13947Y72401D01*
X14596Y73049D01*
X14596Y79379D01*
X11918Y82057D01*
X8130Y82057D01*
X5452Y79379D01*
X5452Y77236D01*
X3172Y79515D01*
X-615Y79515D01*
X-2540Y77590D01*
X-2540Y103886D01*
X-762Y103886D01*
X-762Y113538D01*
X762Y113538D01*
X762Y103886D01*
X7106Y103886D01*
X8075Y104146D01*
X8943Y104647D01*
X9653Y105357D01*
X10154Y106225D01*
X10414Y107194D01*
X10414Y113538D01*
X762Y113538D01*
X762Y115062D01*
X10414Y115062D01*
X10414Y121406D01*
X10154Y122375D01*
X9653Y123243D01*
X8943Y123953D01*
X8075Y124454D01*
X7106Y124714D01*
X762Y124714D01*
X762Y115062D01*
X-762Y115062D01*
X-762Y124714D01*
X-2540Y124714D01*
X-2540Y129794D01*
X7972Y129794D01*
X9906Y131728D01*
X9906Y147672D01*
X7972Y149606D01*
X-2540Y149606D01*
X-2540Y155194D01*
X7972Y155194D01*
X9906Y157128D01*
X9906Y173072D01*
X7972Y175006D01*
X-2540Y175006D01*
X-2540Y180594D01*
X7972Y180594D01*
X9906Y182528D01*
X9906Y198472D01*
X7972Y200406D01*
X-2540Y200406D01*
X-2540Y205994D01*
X7972Y205994D01*
X9906Y207928D01*
X9906Y223872D01*
X7972Y225806D01*
X-2540Y225806D01*
X-2540Y231394D01*
X7972Y231394D01*
X9906Y233328D01*
X9906Y249272D01*
X7972Y251206D01*
X-2540Y251206D01*
X-2540Y256794D01*
X7972Y256794D01*
X9906Y258728D01*
X9906Y274672D01*
X7972Y276606D01*
X-2540Y276606D01*
X-2540Y282194D01*
X7972Y282194D01*
X9906Y284128D01*
X9906Y300072D01*
X7972Y302006D01*
X-2540Y302006D01*
X-2540Y307594D01*
X7972Y307594D01*
X9906Y309528D01*
X9906Y325472D01*
X7972Y327406D01*
X-2540Y327406D01*
X-2540Y332994D01*
X7972Y332994D01*
X9906Y334928D01*
X9906Y350872D01*
X7972Y352806D01*
X-2540Y352806D01*
X-2540Y358394D01*
X7972Y358394D01*
X9906Y360328D01*
X9906Y376272D01*
X7972Y378206D01*
X-2540Y378206D01*
X-2540Y383794D01*
X4103Y383794D01*
X9906Y389597D01*
X9906Y397803D01*
X4103Y403606D01*
X-2540Y403606D01*
X-2540Y424998D01*
X-399Y426553D01*
X-180Y427228D01*
X15650Y427228D01*
X15494Y427072D01*
X15494Y411128D01*
X17428Y409194D01*
X21082Y409194D01*
X21082Y407634D01*
X25110Y403606D01*
X21297Y403606D01*
X15494Y397803D01*
X15494Y389597D01*
X21297Y383794D01*
X29503Y383794D01*
X35306Y389597D01*
X26162Y99314D02*
X26162Y89662D01*
X24638Y89662D01*
X24638Y99314D01*
X21086Y99314D01*
X14986Y93214D01*
X14986Y89662D01*
X24638Y89662D01*
X24638Y88138D01*
X14986Y88138D01*
X14986Y84586D01*
X21086Y78486D01*
X24638Y78486D01*
X24638Y88138D01*
X26162Y88138D01*
X26162Y78486D01*
X29714Y78486D01*
X35814Y84586D01*
X35814Y88138D01*
X26162Y88138D01*
X26162Y89662D01*
X35814Y89662D01*
X35814Y93214D01*
X29714Y99314D01*
X26162Y99314D01*
X35306Y364197D02*
X35306Y372403D01*
X29503Y378206D01*
X21297Y378206D01*
X15494Y372403D01*
X15494Y364197D01*
X21297Y358394D01*
X29503Y358394D01*
X35306Y364197D01*
X35306Y347003D02*
X35306Y338797D01*
X35306Y347003D02*
X29503Y352806D01*
X21297Y352806D01*
X15494Y347003D01*
X15494Y338797D01*
X21297Y332994D01*
X29503Y332994D01*
X35306Y338797D01*
X35306Y321603D02*
X35306Y313397D01*
X35306Y321603D02*
X29503Y327406D01*
X21297Y327406D01*
X15494Y321603D01*
X15494Y313397D01*
X21297Y307594D01*
X29503Y307594D01*
X35306Y313397D01*
X35306Y296203D02*
X35306Y287997D01*
X35306Y296203D02*
X29503Y302006D01*
X21297Y302006D01*
X15494Y296203D01*
X15494Y287997D01*
X21297Y282194D01*
X29503Y282194D01*
X35306Y287997D01*
X35306Y270803D02*
X35306Y262597D01*
X35306Y270803D02*
X29503Y276606D01*
X21297Y276606D01*
X15494Y270803D01*
X15494Y262597D01*
X21297Y256794D01*
X29503Y256794D01*
X35306Y262597D01*
X35306Y245403D02*
X35306Y237197D01*
X35306Y245403D02*
X29503Y251206D01*
X21297Y251206D01*
X15494Y245403D01*
X15494Y237197D01*
X21297Y231394D01*
X29503Y231394D01*
X35306Y237197D01*
X35306Y220003D02*
X35306Y211797D01*
X35306Y220003D02*
X29503Y225806D01*
X21297Y225806D01*
X15494Y220003D01*
X15494Y211797D01*
X21297Y205994D01*
X29503Y205994D01*
X35306Y211797D01*
X35306Y194603D02*
X35306Y186397D01*
X35306Y194603D02*
X29503Y200406D01*
X21297Y200406D01*
X15494Y194603D01*
X15494Y186397D01*
X21297Y180594D01*
X29503Y180594D01*
X35306Y186397D01*
X35306Y169203D02*
X35306Y160997D01*
X35306Y169203D02*
X29503Y175006D01*
X21297Y175006D01*
X15494Y169203D01*
X15494Y160997D01*
X21297Y155194D01*
X29503Y155194D01*
X35306Y160997D01*
X35306Y143803D02*
X35306Y135597D01*
X35306Y143803D02*
X29503Y149606D01*
X21297Y149606D01*
X15494Y143803D01*
X15494Y135597D01*
X21297Y129794D01*
X29503Y129794D01*
X35306Y135597D01*
X35306Y118403D02*
X35306Y110197D01*
X35306Y118403D02*
X29503Y124206D01*
X21297Y124206D01*
X15494Y118403D01*
X15494Y110197D01*
X21297Y104394D01*
X29503Y104394D01*
X35306Y110197D01*
X33372Y409194D02*
X31736Y409194D01*
X33372Y409194D02*
X35306Y411128D01*
X35306Y427072D01*
X35150Y427228D01*
X68144Y427228D01*
X68442Y426407D01*
X68442Y426407D01*
X73912Y419888D01*
X73912Y419888D01*
X73912Y419888D01*
X81282Y415633D01*
X81282Y415633D01*
X89662Y414156D01*
X89662Y414156D01*
X98042Y415633D01*
X98042Y415633D01*
X105412Y419888D01*
X105412Y419888D01*
X110882Y426407D01*
X110882Y426407D01*
X111180Y427228D01*
X171919Y427228D01*
X167894Y423203D01*
X167894Y414997D01*
X173697Y409194D01*
X180140Y409194D01*
X180140Y403606D01*
X173697Y403606D01*
X168109Y398018D01*
X166334Y398018D01*
X163805Y395489D01*
X163805Y388341D01*
X162306Y388341D01*
X162306Y401672D01*
X160372Y403606D01*
X144428Y403606D01*
X142494Y401672D01*
X142494Y385728D01*
X143481Y384741D01*
X95476Y336736D01*
X95453Y336713D01*
X95453Y336713D01*
X95453Y336713D01*
X95453Y334942D01*
X95453Y96452D01*
X94748Y97157D01*
X92070Y99835D01*
X83198Y99835D01*
X81433Y98070D01*
X80520Y97157D01*
X80520Y97157D01*
X79743Y96380D01*
X77978Y94615D01*
X77978Y80658D01*
X80520Y78116D01*
X83198Y75438D01*
X92070Y75438D01*
X93785Y77153D01*
X95453Y78821D01*
X95453Y74422D01*
X78642Y74422D01*
X76708Y72488D01*
X76708Y54512D01*
X78642Y52578D01*
X82768Y52578D01*
X80772Y50582D01*
X80772Y49022D01*
X80566Y49022D01*
X74168Y42624D01*
X74168Y33576D01*
X80566Y27178D01*
X89614Y27178D01*
X96012Y33576D01*
X96012Y42624D01*
X94161Y44475D01*
X97572Y44475D01*
X100101Y47004D01*
X104089Y50992D01*
X104089Y52578D01*
X108168Y52578D01*
X106172Y50582D01*
X106172Y49022D01*
X105966Y49022D01*
X99568Y42624D01*
X99568Y33576D01*
X105966Y27178D01*
X115014Y27178D01*
X121412Y33576D01*
X121412Y42624D01*
X119561Y44475D01*
X122972Y44475D01*
X125501Y47004D01*
X129489Y50992D01*
X129489Y52578D01*
X147418Y52578D01*
X149352Y54512D01*
X149352Y72488D01*
X147418Y74422D01*
X143637Y74422D01*
X143637Y75438D01*
X145412Y75438D01*
X148091Y78116D01*
X148091Y92072D01*
X145412Y94751D01*
X143637Y96526D01*
X143637Y105185D01*
X144428Y104394D01*
X160372Y104394D01*
X162306Y106328D01*
X162306Y122272D01*
X160372Y124206D01*
X144428Y124206D01*
X143637Y123415D01*
X143637Y130585D01*
X144428Y129794D01*
X160372Y129794D01*
X162306Y131728D01*
X162306Y147672D01*
X160372Y149606D01*
X144428Y149606D01*
X143637Y148815D01*
X143637Y155985D01*
X144428Y155194D01*
X160372Y155194D01*
X162306Y157128D01*
X162306Y173072D01*
X160372Y175006D01*
X144428Y175006D01*
X143637Y174215D01*
X143637Y181385D01*
X144428Y180594D01*
X160372Y180594D01*
X162306Y182528D01*
X162306Y198472D01*
X160372Y200406D01*
X144428Y200406D01*
X143637Y199615D01*
X143637Y206785D01*
X144428Y205994D01*
X160372Y205994D01*
X162306Y207928D01*
X162306Y223872D01*
X160372Y225806D01*
X144428Y225806D01*
X143637Y225015D01*
X143637Y232185D01*
X144428Y231394D01*
X160372Y231394D01*
X162306Y233328D01*
X162306Y249272D01*
X160372Y251206D01*
X144428Y251206D01*
X143637Y250415D01*
X143637Y257585D01*
X144428Y256794D01*
X160372Y256794D01*
X162306Y258728D01*
X162306Y260364D01*
X172581Y250090D01*
X167894Y245403D01*
X167894Y237197D01*
X173697Y231394D01*
X180140Y231394D01*
X180140Y225806D01*
X173697Y225806D01*
X167894Y220003D01*
X167894Y211797D01*
X173697Y205994D01*
X180140Y205994D01*
X180140Y200406D01*
X173697Y200406D01*
X167894Y194603D01*
X167894Y186397D01*
X173697Y180594D01*
X180140Y180594D01*
X180140Y175006D01*
X173697Y175006D01*
X167894Y169203D01*
X167894Y160997D01*
X173697Y155194D01*
X180140Y155194D01*
X180140Y149606D01*
X173697Y149606D01*
X167894Y143803D01*
X167894Y135597D01*
X173697Y129794D01*
X180140Y129794D01*
X180140Y124206D01*
X173697Y124206D01*
X167894Y118403D01*
X167894Y110197D01*
X173697Y104394D01*
X180140Y104394D01*
X180140Y98806D01*
X173697Y98806D01*
X167894Y93003D01*
X167894Y84797D01*
X173697Y78994D01*
X180140Y78994D01*
X180140Y46491D01*
X178316Y46491D01*
X175126Y43300D01*
X171935Y46491D01*
X168148Y46491D01*
X166940Y45283D01*
X165732Y46491D01*
X165732Y46491D01*
X160648Y51575D01*
X156861Y51575D01*
X154182Y48897D01*
X154182Y48897D01*
X151776Y46491D01*
X151776Y46491D01*
X149098Y43812D01*
X149098Y29856D01*
X151776Y27178D01*
X155564Y27178D01*
X158242Y29856D01*
X158242Y34805D01*
X159267Y34805D01*
X159267Y29856D01*
X161173Y27950D01*
X160223Y27000D01*
X159260Y26037D01*
X159260Y26037D01*
X158433Y25209D01*
X156718Y23495D01*
X156718Y9538D01*
X157366Y8890D01*
X149860Y8890D01*
X149860Y11430D01*
X139700Y11430D01*
X139700Y13970D01*
X149860Y13970D01*
X149860Y17434D01*
X143164Y24130D01*
X139700Y24130D01*
X139700Y13970D01*
X137160Y13970D01*
X137160Y24130D01*
X133696Y24130D01*
X127000Y17434D01*
X127000Y13970D01*
X137160Y13970D01*
X137160Y11430D01*
X127000Y11430D01*
X127000Y8890D01*
X124460Y8890D01*
X124460Y11430D01*
X114300Y11430D01*
X114300Y13970D01*
X124460Y13970D01*
X124460Y17434D01*
X117764Y24130D01*
X114300Y24130D01*
X114300Y13970D01*
X111760Y13970D01*
X111760Y24130D01*
X108296Y24130D01*
X101600Y17434D01*
X101600Y13970D01*
X111760Y13970D01*
X111760Y11430D01*
X101600Y11430D01*
X101600Y8890D01*
X99060Y8890D01*
X99060Y11430D01*
X88900Y11430D01*
X88900Y13970D01*
X99060Y13970D01*
X99060Y17434D01*
X92364Y24130D01*
X88900Y24130D01*
X88900Y13970D01*
X86360Y13970D01*
X86360Y24130D01*
X82896Y24130D01*
X76200Y17434D01*
X76200Y13970D01*
X86360Y13970D01*
X86360Y11430D01*
X76200Y11430D01*
X76200Y8890D01*
X73660Y8890D01*
X73660Y11430D01*
X63500Y11430D01*
X63500Y13970D01*
X73660Y13970D01*
X73660Y17434D01*
X66964Y24130D01*
X63500Y24130D01*
X63500Y13970D01*
X60960Y13970D01*
X60960Y24130D01*
X57496Y24130D01*
X50800Y17434D01*
X50800Y13970D01*
X60960Y13970D01*
X60960Y11430D01*
X50800Y11430D01*
X50800Y8890D01*
X48754Y8890D01*
X48754Y18412D01*
X46076Y21091D01*
X42288Y21091D01*
X39610Y18412D01*
X39610Y13464D01*
X38585Y13464D01*
X38585Y18412D01*
X35907Y21091D01*
X32119Y21091D01*
X29641Y18612D01*
X27162Y21091D01*
X18290Y21091D01*
X16525Y19325D01*
X15612Y18412D01*
X15612Y18412D01*
X14835Y17636D01*
X13070Y15870D01*
X13070Y10922D01*
X5842Y10922D01*
X5842Y23497D01*
X3164Y26175D01*
X-624Y26175D01*
X-2540Y24259D01*
X-2540Y57043D01*
X-615Y55118D01*
X3172Y55118D01*
X4380Y56326D01*
X5588Y55118D01*
X14460Y55118D01*
X16752Y57410D01*
X18908Y55254D01*
X18908Y52712D01*
X20045Y51575D01*
X19701Y51575D01*
X17022Y48897D01*
X11938Y43812D01*
X11938Y29856D01*
X14616Y27178D01*
X18404Y27178D01*
X21082Y29856D01*
X21082Y34805D01*
X22107Y34805D01*
X22107Y29856D01*
X24785Y27178D01*
X28572Y27178D01*
X29780Y28386D01*
X30988Y27178D01*
X34775Y27178D01*
X37966Y30369D01*
X41156Y27178D01*
X44944Y27178D01*
X47622Y29856D01*
X47622Y33644D01*
X44432Y36834D01*
X47622Y40025D01*
X47622Y43812D01*
X44944Y46491D01*
X41156Y46491D01*
X37966Y43300D01*
X34775Y46491D01*
X30988Y46491D01*
X29780Y45283D01*
X28572Y46491D01*
X25029Y50034D01*
X27916Y50034D01*
X30458Y52576D01*
X33001Y55118D01*
X36661Y55118D01*
X39339Y57796D01*
X39339Y65287D01*
X40364Y65287D01*
X40364Y57796D01*
X43042Y55118D01*
X46830Y55118D01*
X46914Y55202D01*
X46914Y47563D01*
X47473Y47004D01*
X50002Y44475D01*
X50619Y44475D01*
X48768Y42624D01*
X48768Y33576D01*
X55166Y27178D01*
X64214Y27178D01*
X70612Y33576D01*
X70612Y42624D01*
X64214Y49022D01*
X64008Y49022D01*
X64008Y50582D01*
X62012Y52578D01*
X71218Y52578D01*
X73152Y54512D01*
X73152Y72488D01*
X71218Y74422D01*
X55550Y74422D01*
X55550Y75438D01*
X66670Y75438D01*
X68385Y77153D01*
X69212Y77980D01*
X69212Y77980D01*
X70176Y78943D01*
X71891Y80658D01*
X71891Y94615D01*
X69348Y97157D01*
X66670Y99835D01*
X55550Y99835D01*
X55550Y385380D01*
X53021Y387909D01*
X31736Y409194D01*
X156718Y69212D02*
X156718Y65425D01*
X159396Y62747D01*
X161802Y62747D01*
X161802Y61722D01*
X159396Y61722D01*
X156718Y59044D01*
X156718Y55256D01*
X159396Y52578D01*
X173352Y52578D01*
X176031Y55256D01*
X176031Y59044D01*
X173352Y61722D01*
X170946Y61722D01*
X170946Y74297D01*
X168268Y76975D01*
X164481Y76975D01*
X161802Y74297D01*
X156718Y69212D01*
X146812Y42624D02*
X146812Y33576D01*
X146812Y42624D02*
X140414Y49022D01*
X131366Y49022D01*
X124968Y42624D01*
X124968Y33576D01*
X131366Y27178D01*
X140414Y27178D01*
X146812Y33576D01*
X13070Y12192D02*
X5842Y12192D01*
X48754Y12192D02*
X60960Y12192D01*
X63500Y12192D02*
X86360Y12192D01*
X88900Y12192D02*
X111760Y12192D01*
X114300Y12192D02*
X137160Y12192D01*
X139700Y12192D02*
X156718Y12192D01*
X15487Y18288D02*
X5842Y18288D01*
X38585Y18288D02*
X39610Y18288D01*
X48754Y18288D02*
X51654Y18288D01*
X60960Y18288D02*
X63500Y18288D01*
X72806Y18288D02*
X77054Y18288D01*
X86360Y18288D02*
X88900Y18288D01*
X98206Y18288D02*
X102454Y18288D01*
X111760Y18288D02*
X114300Y18288D01*
X123606Y18288D02*
X127854Y18288D01*
X137160Y18288D02*
X139700Y18288D01*
X149006Y18288D02*
X156718Y18288D01*
X-2415Y24384D02*
X-2540Y24384D01*
X4955Y24384D02*
X157607Y24384D01*
X11938Y30480D02*
X-2540Y30480D01*
X21082Y30480D02*
X22107Y30480D01*
X47622Y30480D02*
X51864Y30480D01*
X67516Y30480D02*
X77264Y30480D01*
X92916Y30480D02*
X102664Y30480D01*
X118316Y30480D02*
X128064Y30480D01*
X143716Y30480D02*
X149098Y30480D01*
X158242Y30480D02*
X159267Y30480D01*
X11938Y36576D02*
X-2540Y36576D01*
X44690Y36576D02*
X48768Y36576D01*
X70612Y36576D02*
X74168Y36576D01*
X96012Y36576D02*
X99568Y36576D01*
X121412Y36576D02*
X124968Y36576D01*
X146812Y36576D02*
X149098Y36576D01*
X11938Y42672D02*
X-2540Y42672D01*
X47622Y42672D02*
X48816Y42672D01*
X70564Y42672D02*
X74216Y42672D01*
X95964Y42672D02*
X99616Y42672D01*
X121364Y42672D02*
X125016Y42672D01*
X146764Y42672D02*
X149098Y42672D01*
X16894Y48768D02*
X-2540Y48768D01*
X26295Y48768D02*
X46914Y48768D01*
X64468Y48768D02*
X80312Y48768D01*
X101865Y48768D02*
X105712Y48768D01*
X127265Y48768D02*
X131112Y48768D01*
X140668Y48768D02*
X154054Y48768D01*
X163455Y48768D02*
X180140Y48768D01*
X18908Y54864D02*
X-2540Y54864D01*
X32747Y54864D02*
X46914Y54864D01*
X73152Y54864D02*
X76708Y54864D01*
X149352Y54864D02*
X157110Y54864D01*
X175638Y54864D02*
X180140Y54864D01*
X40364Y60960D02*
X39339Y60960D01*
X73152Y60960D02*
X76708Y60960D01*
X149352Y60960D02*
X158634Y60960D01*
X174114Y60960D02*
X180140Y60960D01*
X76708Y67056D02*
X73152Y67056D01*
X149352Y67056D02*
X156718Y67056D01*
X170946Y67056D02*
X180140Y67056D01*
X17766Y73152D02*
X14596Y73152D01*
X45566Y73152D02*
X46914Y73152D01*
X72488Y73152D02*
X77372Y73152D01*
X148688Y73152D02*
X160658Y73152D01*
X170946Y73152D02*
X180140Y73152D01*
X-882Y79248D02*
X-2540Y79248D01*
X3439Y79248D02*
X5452Y79248D01*
X14596Y79248D02*
X20324Y79248D01*
X24638Y79248D02*
X26162Y79248D01*
X30476Y79248D02*
X32607Y79248D01*
X36928Y79248D02*
X46914Y79248D01*
X70480Y79248D02*
X79388Y79248D01*
X148091Y79248D02*
X173443Y79248D01*
X14986Y85344D02*
X-2540Y85344D01*
X24638Y85344D02*
X26162Y85344D01*
X35814Y85344D02*
X46914Y85344D01*
X71891Y85344D02*
X77978Y85344D01*
X148091Y85344D02*
X167894Y85344D01*
X14986Y91440D02*
X-2540Y91440D01*
X24638Y91440D02*
X26162Y91440D01*
X35814Y91440D02*
X46914Y91440D01*
X71891Y91440D02*
X77978Y91440D01*
X148091Y91440D02*
X167894Y91440D01*
X19308Y97536D02*
X-2540Y97536D01*
X24638Y97536D02*
X26162Y97536D01*
X31492Y97536D02*
X46914Y97536D01*
X68969Y97536D02*
X80899Y97536D01*
X94369Y97536D02*
X95453Y97536D01*
X143637Y97536D02*
X172427Y97536D01*
X46914Y103632D02*
X-2540Y103632D01*
X55550Y103632D02*
X95453Y103632D01*
X143637Y103632D02*
X180140Y103632D01*
X762Y109728D02*
X-762Y109728D01*
X10414Y109728D02*
X15963Y109728D01*
X34837Y109728D02*
X46914Y109728D01*
X55550Y109728D02*
X95453Y109728D01*
X162306Y109728D02*
X168363Y109728D01*
X762Y115824D02*
X-762Y115824D01*
X10414Y115824D02*
X15494Y115824D01*
X35306Y115824D02*
X46914Y115824D01*
X55550Y115824D02*
X95453Y115824D01*
X162306Y115824D02*
X167894Y115824D01*
X762Y121920D02*
X-762Y121920D01*
X10276Y121920D02*
X19011Y121920D01*
X31789Y121920D02*
X46914Y121920D01*
X55550Y121920D02*
X95453Y121920D01*
X162306Y121920D02*
X171411Y121920D01*
X46914Y128016D02*
X-2540Y128016D01*
X55550Y128016D02*
X95453Y128016D01*
X143637Y128016D02*
X180140Y128016D01*
X16979Y134112D02*
X9906Y134112D01*
X33821Y134112D02*
X46914Y134112D01*
X55550Y134112D02*
X95453Y134112D01*
X162306Y134112D02*
X169379Y134112D01*
X15494Y140208D02*
X9906Y140208D01*
X35306Y140208D02*
X46914Y140208D01*
X55550Y140208D02*
X95453Y140208D01*
X162306Y140208D02*
X167894Y140208D01*
X17995Y146304D02*
X9906Y146304D01*
X32805Y146304D02*
X46914Y146304D01*
X55550Y146304D02*
X95453Y146304D01*
X162306Y146304D02*
X170395Y146304D01*
X46914Y152400D02*
X-2540Y152400D01*
X55550Y152400D02*
X95453Y152400D01*
X143637Y152400D02*
X180140Y152400D01*
X17995Y158496D02*
X9906Y158496D01*
X32805Y158496D02*
X46914Y158496D01*
X55550Y158496D02*
X95453Y158496D01*
X162306Y158496D02*
X170395Y158496D01*
X15494Y164592D02*
X9906Y164592D01*
X35306Y164592D02*
X46914Y164592D01*
X55550Y164592D02*
X95453Y164592D01*
X162306Y164592D02*
X167894Y164592D01*
X16979Y170688D02*
X9906Y170688D01*
X33821Y170688D02*
X46914Y170688D01*
X55550Y170688D02*
X95453Y170688D01*
X162306Y170688D02*
X169379Y170688D01*
X46914Y176784D02*
X-2540Y176784D01*
X55550Y176784D02*
X95453Y176784D01*
X143637Y176784D02*
X180140Y176784D01*
X19011Y182880D02*
X9906Y182880D01*
X31789Y182880D02*
X46914Y182880D01*
X55550Y182880D02*
X95453Y182880D01*
X162306Y182880D02*
X171411Y182880D01*
X15494Y188976D02*
X9906Y188976D01*
X35306Y188976D02*
X46914Y188976D01*
X55550Y188976D02*
X95453Y188976D01*
X162306Y188976D02*
X167894Y188976D01*
X15963Y195072D02*
X9906Y195072D01*
X34837Y195072D02*
X46914Y195072D01*
X55550Y195072D02*
X95453Y195072D01*
X162306Y195072D02*
X168363Y195072D01*
X46914Y201168D02*
X-2540Y201168D01*
X55550Y201168D02*
X95453Y201168D01*
X143637Y201168D02*
X180140Y201168D01*
X20027Y207264D02*
X9242Y207264D01*
X30773Y207264D02*
X46914Y207264D01*
X55550Y207264D02*
X95453Y207264D01*
X161642Y207264D02*
X172427Y207264D01*
X15494Y213360D02*
X9906Y213360D01*
X35306Y213360D02*
X46914Y213360D01*
X55550Y213360D02*
X95453Y213360D01*
X162306Y213360D02*
X167894Y213360D01*
X15494Y219456D02*
X9906Y219456D01*
X35306Y219456D02*
X46914Y219456D01*
X55550Y219456D02*
X95453Y219456D01*
X162306Y219456D02*
X167894Y219456D01*
X21043Y225552D02*
X8226Y225552D01*
X29757Y225552D02*
X46914Y225552D01*
X55550Y225552D02*
X95453Y225552D01*
X143637Y225552D02*
X144174Y225552D01*
X160626Y225552D02*
X173443Y225552D01*
X21043Y231648D02*
X8226Y231648D01*
X29757Y231648D02*
X46914Y231648D01*
X55550Y231648D02*
X95453Y231648D01*
X143637Y231648D02*
X144174Y231648D01*
X160626Y231648D02*
X173443Y231648D01*
X15494Y237744D02*
X9906Y237744D01*
X35306Y237744D02*
X46914Y237744D01*
X55550Y237744D02*
X95453Y237744D01*
X162306Y237744D02*
X167894Y237744D01*
X15494Y243840D02*
X9906Y243840D01*
X35306Y243840D02*
X46914Y243840D01*
X55550Y243840D02*
X95453Y243840D01*
X162306Y243840D02*
X167894Y243840D01*
X20027Y249936D02*
X9242Y249936D01*
X30773Y249936D02*
X46914Y249936D01*
X55550Y249936D02*
X95453Y249936D01*
X161642Y249936D02*
X172427Y249936D01*
X46914Y256032D02*
X-2540Y256032D01*
X55550Y256032D02*
X95453Y256032D01*
X143637Y256032D02*
X166638Y256032D01*
X15963Y262128D02*
X9906Y262128D01*
X34837Y262128D02*
X46914Y262128D01*
X55550Y262128D02*
X95453Y262128D01*
X15494Y268224D02*
X9906Y268224D01*
X35306Y268224D02*
X46914Y268224D01*
X55550Y268224D02*
X95453Y268224D01*
X19011Y274320D02*
X9906Y274320D01*
X31789Y274320D02*
X46914Y274320D01*
X55550Y274320D02*
X95453Y274320D01*
X46914Y280416D02*
X-2540Y280416D01*
X55550Y280416D02*
X95453Y280416D01*
X16979Y286512D02*
X9906Y286512D01*
X33821Y286512D02*
X46914Y286512D01*
X55550Y286512D02*
X95453Y286512D01*
X15494Y292608D02*
X9906Y292608D01*
X35306Y292608D02*
X46914Y292608D01*
X55550Y292608D02*
X95453Y292608D01*
X17995Y298704D02*
X9906Y298704D01*
X32805Y298704D02*
X46914Y298704D01*
X55550Y298704D02*
X95453Y298704D01*
X46914Y304800D02*
X-2540Y304800D01*
X55550Y304800D02*
X95453Y304800D01*
X17995Y310896D02*
X9906Y310896D01*
X32805Y310896D02*
X46914Y310896D01*
X55550Y310896D02*
X95453Y310896D01*
X15494Y316992D02*
X9906Y316992D01*
X35306Y316992D02*
X46914Y316992D01*
X55550Y316992D02*
X95453Y316992D01*
X16979Y323088D02*
X9906Y323088D01*
X33821Y323088D02*
X46914Y323088D01*
X55550Y323088D02*
X95453Y323088D01*
X46914Y329184D02*
X-2540Y329184D01*
X55550Y329184D02*
X95453Y329184D01*
X19011Y335280D02*
X9906Y335280D01*
X31789Y335280D02*
X46914Y335280D01*
X55550Y335280D02*
X95453Y335280D01*
X15494Y341376D02*
X9906Y341376D01*
X35306Y341376D02*
X46914Y341376D01*
X55550Y341376D02*
X100116Y341376D01*
X15963Y347472D02*
X9906Y347472D01*
X34837Y347472D02*
X46914Y347472D01*
X55550Y347472D02*
X106212Y347472D01*
X46914Y353568D02*
X-2540Y353568D01*
X55550Y353568D02*
X112308Y353568D01*
X20027Y359664D02*
X9242Y359664D01*
X30773Y359664D02*
X46914Y359664D01*
X55550Y359664D02*
X118404Y359664D01*
X15494Y365760D02*
X9906Y365760D01*
X35306Y365760D02*
X46914Y365760D01*
X55550Y365760D02*
X124500Y365760D01*
X15494Y371856D02*
X9906Y371856D01*
X35306Y371856D02*
X46914Y371856D01*
X55550Y371856D02*
X130596Y371856D01*
X21043Y377952D02*
X8226Y377952D01*
X29757Y377952D02*
X46914Y377952D01*
X55550Y377952D02*
X136692Y377952D01*
X21043Y384048D02*
X4357Y384048D01*
X29757Y384048D02*
X44668Y384048D01*
X55550Y384048D02*
X142788Y384048D01*
X15494Y390144D02*
X9906Y390144D01*
X35306Y390144D02*
X38572Y390144D01*
X50786Y390144D02*
X142494Y390144D01*
X162306Y390144D02*
X163805Y390144D01*
X15494Y396240D02*
X9906Y396240D01*
X44690Y396240D02*
X142494Y396240D01*
X162306Y396240D02*
X164556Y396240D01*
X20027Y402336D02*
X5373Y402336D01*
X38594Y402336D02*
X143158Y402336D01*
X161642Y402336D02*
X172427Y402336D01*
X21082Y408432D02*
X-2540Y408432D01*
X32498Y408432D02*
X180140Y408432D01*
X15494Y414528D02*
X-2540Y414528D01*
X35306Y414528D02*
X87551Y414528D01*
X91773Y414528D02*
X168363Y414528D01*
X15494Y420624D02*
X-2540Y420624D01*
X35306Y420624D02*
X73295Y420624D01*
X106029Y420624D02*
X167894Y420624D01*
X15494Y426720D02*
X-345Y426720D01*
X35306Y426720D02*
X68328Y426720D01*
X110995Y426720D02*
X171411Y426720D01*
X0Y55118D02*
X0Y26175D01*
X0Y79515D02*
X0Y113538D01*
X0Y115062D02*
X0Y129794D01*
X0Y149606D02*
X0Y155194D01*
X0Y175006D02*
X0Y180594D01*
X0Y200406D02*
X0Y205994D01*
X0Y225806D02*
X0Y231394D01*
X0Y251206D02*
X0Y256794D01*
X0Y276606D02*
X0Y282194D01*
X0Y302006D02*
X0Y307594D01*
X0Y327406D02*
X0Y332994D01*
X0Y352806D02*
X0Y358394D01*
X0Y378206D02*
X0Y383794D01*
X0Y403606D02*
X0Y427228D01*
X6096Y55118D02*
X6096Y10922D01*
X6096Y80023D02*
X6096Y103886D01*
X6096Y113538D02*
X6096Y115062D01*
X6096Y124714D02*
X6096Y129794D01*
X6096Y149606D02*
X6096Y155194D01*
X6096Y175006D02*
X6096Y180594D01*
X6096Y200406D02*
X6096Y205994D01*
X6096Y225806D02*
X6096Y231394D01*
X6096Y251206D02*
X6096Y256794D01*
X6096Y276606D02*
X6096Y282194D01*
X6096Y302006D02*
X6096Y307594D01*
X6096Y327406D02*
X6096Y332994D01*
X6096Y352806D02*
X6096Y358394D01*
X6096Y378206D02*
X6096Y385787D01*
X6096Y401613D02*
X6096Y427228D01*
X12192Y29602D02*
X12192Y10922D01*
X12192Y44066D02*
X12192Y55118D01*
X12192Y81783D02*
X12192Y427228D01*
X18288Y27178D02*
X18288Y21089D01*
X18288Y50162D02*
X18288Y55874D01*
X18288Y73674D02*
X18288Y81284D01*
X18288Y88138D02*
X18288Y89662D01*
X18288Y96516D02*
X18288Y107403D01*
X18288Y121197D02*
X18288Y132803D01*
X18288Y146597D02*
X18288Y158203D01*
X18288Y171997D02*
X18288Y183603D01*
X18288Y197397D02*
X18288Y209003D01*
X18288Y222797D02*
X18288Y234403D01*
X18288Y248197D02*
X18288Y259803D01*
X18288Y273597D02*
X18288Y285203D01*
X18288Y298997D02*
X18288Y310603D01*
X18288Y324397D02*
X18288Y336003D01*
X18288Y349797D02*
X18288Y361403D01*
X18288Y375197D02*
X18288Y386803D01*
X18288Y400597D02*
X18288Y409194D01*
X24384Y27579D02*
X24384Y21091D01*
X24384Y74431D02*
X24384Y78486D01*
X24384Y88138D02*
X24384Y89662D01*
X24384Y99314D02*
X24384Y104394D01*
X24384Y124206D02*
X24384Y129794D01*
X24384Y149606D02*
X24384Y155194D01*
X24384Y175006D02*
X24384Y180594D01*
X24384Y200406D02*
X24384Y205994D01*
X24384Y225806D02*
X24384Y231394D01*
X24384Y251206D02*
X24384Y256794D01*
X24384Y276606D02*
X24384Y282194D01*
X24384Y302006D02*
X24384Y307594D01*
X24384Y327406D02*
X24384Y332994D01*
X24384Y352806D02*
X24384Y358394D01*
X24384Y378206D02*
X24384Y383794D01*
X24384Y403606D02*
X24384Y404332D01*
X30480Y27686D02*
X30480Y19451D01*
X30480Y45983D02*
X30480Y52597D01*
X30480Y77121D02*
X30480Y79252D01*
X30480Y88138D02*
X30480Y89662D01*
X30480Y98548D02*
X30480Y105371D01*
X30480Y123229D02*
X30480Y130771D01*
X30480Y148629D02*
X30480Y156171D01*
X30480Y174029D02*
X30480Y181571D01*
X30480Y199429D02*
X30480Y206971D01*
X30480Y224829D02*
X30480Y232371D01*
X30480Y250229D02*
X30480Y257771D01*
X30480Y275629D02*
X30480Y283171D01*
X30480Y301029D02*
X30480Y308571D01*
X30480Y326429D02*
X30480Y333971D01*
X30480Y351829D02*
X30480Y359371D01*
X30480Y377229D02*
X30480Y384771D01*
X36576Y28979D02*
X36576Y20422D01*
X36576Y44690D02*
X36576Y55118D01*
X36576Y79515D02*
X36576Y392140D01*
X36576Y404354D02*
X36576Y427228D01*
X42672Y27178D02*
X42672Y21091D01*
X42672Y46491D02*
X42672Y55488D01*
X42672Y74431D02*
X42672Y386044D01*
X42672Y398258D02*
X42672Y427228D01*
X48768Y33576D02*
X48768Y8890D01*
X48768Y42624D02*
X48768Y45709D01*
X48768Y392162D02*
X48768Y427228D01*
X54864Y13970D02*
X54864Y11430D01*
X54864Y21498D02*
X54864Y27480D01*
X54864Y386066D02*
X54864Y427228D01*
X60960Y27178D02*
X60960Y13970D01*
X60960Y74422D02*
X60960Y75438D01*
X60960Y99835D02*
X60960Y427228D01*
X67056Y13970D02*
X67056Y11430D01*
X67056Y24038D02*
X67056Y30020D01*
X67056Y46180D02*
X67056Y52578D01*
X67056Y74422D02*
X67056Y75824D01*
X67056Y99449D02*
X67056Y427228D01*
X73152Y13970D02*
X73152Y11430D01*
X73152Y17942D02*
X73152Y420794D01*
X79248Y13970D02*
X79248Y11430D01*
X79248Y20482D02*
X79248Y28496D01*
X79248Y47704D02*
X79248Y52578D01*
X79248Y74422D02*
X79248Y79388D01*
X79248Y95885D02*
X79248Y416808D01*
X85344Y13970D02*
X85344Y11430D01*
X85344Y24130D02*
X85344Y27178D01*
X85344Y74422D02*
X85344Y75438D01*
X85344Y99835D02*
X85344Y414917D01*
X91440Y13970D02*
X91440Y11430D01*
X91440Y24130D02*
X91440Y29004D01*
X91440Y74422D02*
X91440Y75438D01*
X91440Y99835D02*
X91440Y414469D01*
X97536Y13970D02*
X97536Y11430D01*
X97536Y18958D02*
X97536Y44475D01*
X97536Y338796D02*
X97536Y415544D01*
X103632Y13970D02*
X103632Y11430D01*
X103632Y19466D02*
X103632Y29512D01*
X103632Y46688D02*
X103632Y50535D01*
X103632Y344892D02*
X103632Y418861D01*
X109728Y13970D02*
X109728Y11430D01*
X109728Y24130D02*
X109728Y27178D01*
X109728Y350988D02*
X109728Y425032D01*
X115824Y13970D02*
X115824Y11430D01*
X115824Y24130D02*
X115824Y27988D01*
X115824Y357084D02*
X115824Y427228D01*
X121920Y13970D02*
X121920Y11430D01*
X121920Y19974D02*
X121920Y44475D01*
X121920Y363180D02*
X121920Y427228D01*
X128016Y13970D02*
X128016Y11430D01*
X128016Y18450D02*
X128016Y30528D01*
X128016Y45672D02*
X128016Y49519D01*
X128016Y369276D02*
X128016Y427228D01*
X134112Y13970D02*
X134112Y11430D01*
X134112Y24130D02*
X134112Y27178D01*
X134112Y49022D02*
X134112Y52578D01*
X134112Y375372D02*
X134112Y427228D01*
X140208Y13970D02*
X140208Y11430D01*
X140208Y24130D02*
X140208Y27178D01*
X140208Y49022D02*
X140208Y52578D01*
X140208Y381468D02*
X140208Y427228D01*
X146304Y13970D02*
X146304Y11430D01*
X146304Y20990D02*
X146304Y33068D01*
X146304Y43132D02*
X146304Y52578D01*
X146304Y74422D02*
X146304Y76330D01*
X146304Y93859D02*
X146304Y104394D01*
X146304Y124206D02*
X146304Y129794D01*
X146304Y149606D02*
X146304Y155194D01*
X146304Y175006D02*
X146304Y180594D01*
X146304Y200406D02*
X146304Y205994D01*
X146304Y225806D02*
X146304Y231394D01*
X146304Y251206D02*
X146304Y256794D01*
X146304Y403606D02*
X146304Y427228D01*
X152400Y27178D02*
X152400Y8890D01*
X152400Y47114D02*
X152400Y104394D01*
X152400Y124206D02*
X152400Y129794D01*
X152400Y149606D02*
X152400Y155194D01*
X152400Y175006D02*
X152400Y180594D01*
X152400Y200406D02*
X152400Y205994D01*
X152400Y225806D02*
X152400Y231394D01*
X152400Y251206D02*
X152400Y256794D01*
X152400Y403606D02*
X152400Y427228D01*
X158496Y34805D02*
X158496Y25273D01*
X158496Y51575D02*
X158496Y53478D01*
X158496Y60822D02*
X158496Y63647D01*
X158496Y70990D02*
X158496Y104394D01*
X158496Y124206D02*
X158496Y129794D01*
X158496Y149606D02*
X158496Y155194D01*
X158496Y175006D02*
X158496Y180594D01*
X158496Y200406D02*
X158496Y205994D01*
X158496Y225806D02*
X158496Y231394D01*
X158496Y251206D02*
X158496Y256794D01*
X158496Y403606D02*
X158496Y427228D01*
X164592Y52578D02*
X164592Y47631D01*
X164592Y76975D02*
X164592Y258078D01*
X164592Y396276D02*
X164592Y427228D01*
X170688Y52578D02*
X170688Y46491D01*
X170688Y74555D02*
X170688Y82003D01*
X170688Y95797D02*
X170688Y107403D01*
X170688Y121197D02*
X170688Y132803D01*
X170688Y146597D02*
X170688Y158203D01*
X170688Y171997D02*
X170688Y183603D01*
X170688Y197397D02*
X170688Y209003D01*
X170688Y222797D02*
X170688Y234403D01*
X170688Y248197D02*
X170688Y251982D01*
X170688Y400597D02*
X170688Y412203D01*
X170688Y425997D02*
X170688Y427228D01*
X176784Y78994D02*
X176784Y44958D01*
X176784Y98806D02*
X176784Y104394D01*
X176784Y124206D02*
X176784Y129794D01*
X176784Y149606D02*
X176784Y155194D01*
X176784Y175006D02*
X176784Y180594D01*
X176784Y200406D02*
X176784Y205994D01*
X176784Y225806D02*
X176784Y231394D01*
X176784Y403606D02*
X176784Y409194D01*
D16*
X152400Y317500D02*
X152400Y306934D01*
X141834Y306934D01*
X138430Y303530D01*
X138430Y63500D01*
D17*
X152400Y266700D02*
X162077Y266700D01*
X177800Y250977D02*
X177800Y241300D01*
X177800Y250977D02*
X162077Y266700D01*
X110490Y48793D02*
X110490Y38100D01*
X168123Y368300D02*
X177800Y368300D01*
X168123Y368300D02*
X168123Y359181D01*
X167564Y358623D01*
X148869Y358623D01*
X125171Y334924D01*
X125171Y52781D01*
X121183Y48793D01*
X110490Y48793D01*
X85090Y48793D02*
X85090Y38100D01*
X168123Y393700D02*
X177800Y393700D01*
X168123Y393700D02*
X168123Y384581D01*
X167564Y384023D01*
X148869Y384023D01*
X99771Y334924D01*
X99771Y52781D01*
X95783Y48793D01*
X85090Y48793D01*
X59690Y48793D02*
X59690Y38100D01*
X25400Y409423D02*
X25400Y419100D01*
X25400Y409423D02*
X51232Y383591D01*
X51232Y49352D01*
X51791Y48793D01*
X59690Y48793D01*
X152400Y292100D02*
X162077Y292100D01*
X177800Y276377D02*
X177800Y266700D01*
X177800Y276377D02*
X162077Y292100D01*
M02*
