G04 EAGLE Gerber RS-274X export*
G75*
%MOMM*%
%FSLAX34Y34*%
%LPD*%
%INBottom Copper*%
%IPPOS*%
%AMOC8*
5,1,8,0,0,1.08239X$1,22.5*%
G01*
%ADD10P,1.429621X8X22.500000*%
%ADD11R,1.320800X1.320800*%
%ADD12R,1.524000X1.524000*%
%ADD13P,1.649562X8X22.500000*%
%ADD14C,0.203200*%
%ADD15C,0.254000*%
%ADD16C,0.381000*%


D10*
X0Y393700D03*
D11*
X0Y368300D03*
X0Y342900D03*
X0Y317500D03*
X0Y292100D03*
X0Y266700D03*
X0Y241300D03*
X0Y215900D03*
X0Y190500D03*
X0Y165100D03*
X0Y139700D03*
X0Y114300D03*
X152400Y114300D03*
X152400Y139700D03*
X152400Y165100D03*
X152400Y190500D03*
X152400Y215900D03*
X152400Y241300D03*
X152400Y266700D03*
X152400Y292100D03*
X152400Y317500D03*
X152400Y342900D03*
X152400Y368300D03*
X152400Y393700D03*
X25400Y419100D03*
D10*
X25400Y393700D03*
X25400Y368300D03*
X25400Y342900D03*
X25400Y317500D03*
X25400Y292100D03*
X25400Y266700D03*
X25400Y241300D03*
X25400Y215900D03*
X25400Y190500D03*
X25400Y165100D03*
X25400Y139700D03*
X25400Y114300D03*
X25400Y88900D03*
X177800Y88900D03*
X177800Y114300D03*
X177800Y139700D03*
X177800Y165100D03*
X177800Y190500D03*
X177800Y215900D03*
X177800Y241300D03*
X177800Y266700D03*
X177800Y292100D03*
X177800Y317500D03*
X177800Y342900D03*
X177800Y368300D03*
X177800Y393700D03*
X177800Y419100D03*
D12*
X138430Y63500D03*
D13*
X135890Y38100D03*
X138430Y12700D03*
D12*
X113030Y63500D03*
D13*
X110490Y38100D03*
X113030Y12700D03*
D12*
X87630Y63500D03*
D13*
X85090Y38100D03*
X87630Y12700D03*
D12*
X62230Y63500D03*
D13*
X59690Y38100D03*
X62230Y12700D03*
D14*
X9677Y190500D02*
X0Y190500D01*
X25400Y174777D02*
X25400Y165100D01*
X25400Y174777D02*
X9677Y190500D01*
X9677Y165100D02*
X0Y165100D01*
X25400Y149377D02*
X25400Y139700D01*
X25400Y149377D02*
X9677Y165100D01*
X9677Y139700D02*
X0Y139700D01*
X25400Y123977D02*
X25400Y114300D01*
X25400Y123977D02*
X9677Y139700D01*
X152400Y114300D02*
X162077Y114300D01*
X177800Y98577D02*
X177800Y88900D01*
X177800Y98577D02*
X162077Y114300D01*
X162077Y139700D02*
X152400Y139700D01*
X177800Y123977D02*
X177800Y114300D01*
X177800Y123977D02*
X162077Y139700D01*
X162077Y165100D02*
X152400Y165100D01*
X177800Y149377D02*
X177800Y139700D01*
X177800Y149377D02*
X162077Y165100D01*
X162077Y190500D02*
X152400Y190500D01*
X177800Y174777D02*
X177800Y165100D01*
X177800Y174777D02*
X162077Y190500D01*
X162077Y215900D02*
X152400Y215900D01*
X177800Y200177D02*
X177800Y190500D01*
X177800Y200177D02*
X162077Y215900D01*
D15*
X162306Y233328D02*
X162306Y246659D01*
X163308Y246659D01*
X163309Y246661D01*
X163311Y246661D01*
X163805Y247155D01*
X163805Y235261D01*
X163805Y233467D01*
X163805Y233467D01*
X163805Y233466D01*
X165021Y232250D01*
X172581Y224690D01*
X167894Y220003D01*
X167894Y216190D01*
X163866Y220218D01*
X162306Y220218D01*
X162306Y223872D01*
X160372Y225806D01*
X144428Y225806D01*
X142494Y223872D01*
X142494Y207928D01*
X144428Y205994D01*
X160372Y205994D01*
X162306Y207928D01*
X162306Y209564D01*
X172581Y199290D01*
X167894Y194603D01*
X167894Y190790D01*
X163866Y194818D01*
X162306Y194818D01*
X162306Y198472D01*
X160372Y200406D01*
X144428Y200406D01*
X142494Y198472D01*
X142494Y182528D01*
X144428Y180594D01*
X160372Y180594D01*
X162306Y182528D01*
X162306Y184164D01*
X172581Y173890D01*
X167894Y169203D01*
X167894Y165390D01*
X163866Y169418D01*
X162306Y169418D01*
X162306Y173072D01*
X160372Y175006D01*
X144428Y175006D01*
X142494Y173072D01*
X142494Y157128D01*
X144428Y155194D01*
X160372Y155194D01*
X162306Y157128D01*
X162306Y158764D01*
X172581Y148490D01*
X167894Y143803D01*
X167894Y139990D01*
X163866Y144018D01*
X162306Y144018D01*
X162306Y147672D01*
X160372Y149606D01*
X144428Y149606D01*
X142494Y147672D01*
X142494Y131728D01*
X144428Y129794D01*
X160372Y129794D01*
X162306Y131728D01*
X162306Y133364D01*
X172581Y123090D01*
X167894Y118403D01*
X167894Y114590D01*
X163866Y118618D01*
X162306Y118618D01*
X162306Y122272D01*
X160372Y124206D01*
X144428Y124206D01*
X142494Y122272D01*
X142494Y106328D01*
X144428Y104394D01*
X160372Y104394D01*
X162306Y106328D01*
X162306Y107964D01*
X172581Y97690D01*
X167894Y93003D01*
X167894Y84797D01*
X173697Y78994D01*
X180140Y78994D01*
X180140Y8890D01*
X149860Y8890D01*
X149860Y11430D01*
X139700Y11430D01*
X139700Y13970D01*
X149860Y13970D01*
X149860Y17434D01*
X143164Y24130D01*
X139700Y24130D01*
X139700Y13970D01*
X137160Y13970D01*
X137160Y24130D01*
X133696Y24130D01*
X127000Y17434D01*
X127000Y13970D01*
X137160Y13970D01*
X137160Y11430D01*
X127000Y11430D01*
X127000Y8890D01*
X124460Y8890D01*
X124460Y11430D01*
X114300Y11430D01*
X114300Y13970D01*
X124460Y13970D01*
X124460Y17434D01*
X117764Y24130D01*
X114300Y24130D01*
X114300Y13970D01*
X111760Y13970D01*
X111760Y24130D01*
X108296Y24130D01*
X101600Y17434D01*
X101600Y13970D01*
X111760Y13970D01*
X111760Y11430D01*
X101600Y11430D01*
X101600Y8890D01*
X99060Y8890D01*
X99060Y11430D01*
X88900Y11430D01*
X88900Y13970D01*
X99060Y13970D01*
X99060Y17434D01*
X92364Y24130D01*
X88900Y24130D01*
X88900Y13970D01*
X86360Y13970D01*
X86360Y24130D01*
X82896Y24130D01*
X76200Y17434D01*
X76200Y13970D01*
X86360Y13970D01*
X86360Y11430D01*
X76200Y11430D01*
X76200Y8890D01*
X73660Y8890D01*
X73660Y11430D01*
X63500Y11430D01*
X63500Y13970D01*
X73660Y13970D01*
X73660Y17434D01*
X66964Y24130D01*
X63500Y24130D01*
X63500Y13970D01*
X60960Y13970D01*
X60960Y24130D01*
X57496Y24130D01*
X50800Y17434D01*
X50800Y13970D01*
X60960Y13970D01*
X60960Y11430D01*
X50800Y11430D01*
X50800Y8890D01*
X-2540Y8890D01*
X-2540Y103886D01*
X-762Y103886D01*
X-762Y113538D01*
X762Y113538D01*
X762Y103886D01*
X7106Y103886D01*
X8075Y104146D01*
X8943Y104647D01*
X9653Y105357D01*
X10154Y106225D01*
X10414Y107194D01*
X10414Y113538D01*
X762Y113538D01*
X762Y115062D01*
X10414Y115062D01*
X10414Y121406D01*
X10154Y122375D01*
X9653Y123243D01*
X8943Y123953D01*
X8075Y124454D01*
X7106Y124714D01*
X762Y124714D01*
X762Y115062D01*
X-762Y115062D01*
X-762Y124714D01*
X-2540Y124714D01*
X-2540Y129794D01*
X7972Y129794D01*
X9906Y131728D01*
X9906Y133364D01*
X20181Y123090D01*
X15494Y118403D01*
X15494Y110197D01*
X21297Y104394D01*
X29503Y104394D01*
X35306Y110197D01*
X35306Y118403D01*
X29718Y123991D01*
X29718Y125766D01*
X25690Y129794D01*
X29503Y129794D01*
X35306Y135597D01*
X35306Y143803D01*
X29718Y149391D01*
X29718Y151166D01*
X25690Y155194D01*
X29503Y155194D01*
X35306Y160997D01*
X35306Y169203D01*
X29718Y174791D01*
X29718Y176566D01*
X25690Y180594D01*
X29503Y180594D01*
X35306Y186397D01*
X35306Y186933D01*
X144831Y77408D01*
X144831Y74422D01*
X129442Y74422D01*
X127508Y72488D01*
X127508Y68707D01*
X123952Y68707D01*
X123952Y72488D01*
X122018Y74422D01*
X104042Y74422D01*
X102108Y72488D01*
X102108Y68707D01*
X98552Y68707D01*
X98552Y72488D01*
X96618Y74422D01*
X78642Y74422D01*
X76708Y72488D01*
X76708Y68707D01*
X73152Y68707D01*
X73152Y72488D01*
X71218Y74422D01*
X53242Y74422D01*
X51308Y72488D01*
X51308Y54512D01*
X53242Y52578D01*
X71218Y52578D01*
X73152Y54512D01*
X73152Y58293D01*
X76708Y58293D01*
X76708Y54512D01*
X78642Y52578D01*
X96618Y52578D01*
X98552Y54512D01*
X98552Y58293D01*
X102108Y58293D01*
X102108Y54512D01*
X104042Y52578D01*
X122018Y52578D01*
X123952Y54512D01*
X123952Y58293D01*
X127508Y58293D01*
X127508Y54512D01*
X129442Y52578D01*
X133568Y52578D01*
X131572Y50582D01*
X131572Y49022D01*
X131366Y49022D01*
X124968Y42624D01*
X124968Y33576D01*
X131366Y27178D01*
X140414Y27178D01*
X146812Y33576D01*
X146812Y42624D01*
X144961Y44475D01*
X148372Y44475D01*
X150901Y47004D01*
X153467Y49570D01*
X153467Y80986D01*
X150938Y83515D01*
X39395Y195058D01*
X39395Y374351D01*
X39395Y376133D01*
X39395Y376133D01*
X39395Y376134D01*
X38170Y377359D01*
X30619Y384910D01*
X35306Y389597D01*
X35306Y397803D01*
X29503Y403606D01*
X21297Y403606D01*
X15494Y397803D01*
X15494Y393990D01*
X11466Y398018D01*
X9691Y398018D01*
X4103Y403606D01*
X-2540Y403606D01*
X-2540Y427228D01*
X15650Y427228D01*
X15494Y427072D01*
X15494Y411128D01*
X17428Y409194D01*
X33372Y409194D01*
X35306Y411128D01*
X35306Y427072D01*
X35150Y427228D01*
X68144Y427228D01*
X68442Y426407D01*
X68442Y426407D01*
X73912Y419888D01*
X73912Y419888D01*
X73912Y419888D01*
X81282Y415633D01*
X81282Y415633D01*
X89662Y414156D01*
X89662Y414156D01*
X98042Y415633D01*
X98042Y415633D01*
X105412Y419888D01*
X105412Y419888D01*
X110882Y426407D01*
X110882Y426407D01*
X111180Y427228D01*
X171919Y427228D01*
X167894Y423203D01*
X167894Y414997D01*
X169150Y413741D01*
X165077Y413741D01*
X160809Y409473D01*
X157759Y406423D01*
X157759Y403606D01*
X144428Y403606D01*
X142494Y401672D01*
X142494Y388341D01*
X140769Y388341D01*
X140768Y388340D01*
X140767Y388340D01*
X139261Y386832D01*
X137719Y385291D01*
X137719Y385290D01*
X136627Y384198D01*
X136627Y384196D01*
X136626Y384195D01*
X136627Y382039D01*
X136627Y329162D01*
X136626Y327005D01*
X136627Y327004D01*
X136627Y327002D01*
X137719Y325910D01*
X137719Y325909D01*
X139262Y324367D01*
X140767Y322860D01*
X140768Y322860D01*
X140769Y322859D01*
X142494Y322859D01*
X142494Y309528D01*
X144428Y307594D01*
X160372Y307594D01*
X162306Y309528D01*
X162306Y325472D01*
X160372Y327406D01*
X157607Y327406D01*
X157607Y330223D01*
X154836Y332994D01*
X160372Y332994D01*
X162306Y334928D01*
X162306Y336564D01*
X172581Y326290D01*
X167894Y321603D01*
X167894Y313397D01*
X173697Y307594D01*
X180140Y307594D01*
X180140Y302006D01*
X173697Y302006D01*
X167894Y296203D01*
X167894Y287997D01*
X172581Y283310D01*
X162306Y273036D01*
X162306Y274672D01*
X160372Y276606D01*
X144428Y276606D01*
X142494Y274672D01*
X142494Y258728D01*
X144428Y256794D01*
X157759Y256794D01*
X157759Y255295D01*
X150611Y255295D01*
X148082Y252766D01*
X148082Y251206D01*
X144428Y251206D01*
X142494Y249272D01*
X142494Y233328D01*
X144428Y231394D01*
X160372Y231394D01*
X162306Y233328D01*
X70612Y42624D02*
X70612Y33576D01*
X70612Y42624D02*
X64214Y49022D01*
X55166Y49022D01*
X48768Y42624D01*
X48768Y33576D01*
X55166Y27178D01*
X64214Y27178D01*
X70612Y33576D01*
X121412Y33576D02*
X121412Y42624D01*
X115014Y49022D01*
X105966Y49022D01*
X99568Y42624D01*
X99568Y33576D01*
X105966Y27178D01*
X115014Y27178D01*
X121412Y33576D01*
X26162Y89662D02*
X26162Y99314D01*
X26162Y89662D02*
X24638Y89662D01*
X24638Y99314D01*
X21086Y99314D01*
X14986Y93214D01*
X14986Y89662D01*
X24638Y89662D01*
X24638Y88138D01*
X14986Y88138D01*
X14986Y84586D01*
X21086Y78486D01*
X24638Y78486D01*
X24638Y88138D01*
X26162Y88138D01*
X26162Y78486D01*
X29714Y78486D01*
X35814Y84586D01*
X35814Y88138D01*
X26162Y88138D01*
X26162Y89662D01*
X35814Y89662D01*
X35814Y93214D01*
X29714Y99314D01*
X26162Y99314D01*
X162306Y284128D02*
X162306Y300072D01*
X160372Y302006D01*
X144428Y302006D01*
X142494Y300072D01*
X142494Y284128D01*
X144428Y282194D01*
X160372Y282194D01*
X162306Y284128D01*
X96012Y42624D02*
X96012Y33576D01*
X96012Y42624D02*
X89614Y49022D01*
X80566Y49022D01*
X74168Y42624D01*
X74168Y33576D01*
X80566Y27178D01*
X89614Y27178D01*
X96012Y33576D01*
X60960Y12192D02*
X-2540Y12192D01*
X63500Y12192D02*
X86360Y12192D01*
X88900Y12192D02*
X111760Y12192D01*
X114300Y12192D02*
X137160Y12192D01*
X139700Y12192D02*
X180140Y12192D01*
X51654Y18288D02*
X-2540Y18288D01*
X60960Y18288D02*
X63500Y18288D01*
X72806Y18288D02*
X77054Y18288D01*
X86360Y18288D02*
X88900Y18288D01*
X98206Y18288D02*
X102454Y18288D01*
X111760Y18288D02*
X114300Y18288D01*
X123606Y18288D02*
X127854Y18288D01*
X137160Y18288D02*
X139700Y18288D01*
X149006Y18288D02*
X180140Y18288D01*
X180140Y24384D02*
X-2540Y24384D01*
X-2540Y30480D02*
X51864Y30480D01*
X67516Y30480D02*
X77264Y30480D01*
X92916Y30480D02*
X102664Y30480D01*
X118316Y30480D02*
X128064Y30480D01*
X143716Y30480D02*
X180140Y30480D01*
X48768Y36576D02*
X-2540Y36576D01*
X70612Y36576D02*
X74168Y36576D01*
X96012Y36576D02*
X99568Y36576D01*
X121412Y36576D02*
X124968Y36576D01*
X146812Y36576D02*
X180140Y36576D01*
X48816Y42672D02*
X-2540Y42672D01*
X70564Y42672D02*
X74216Y42672D01*
X95964Y42672D02*
X99616Y42672D01*
X121364Y42672D02*
X125016Y42672D01*
X146764Y42672D02*
X180140Y42672D01*
X54912Y48768D02*
X-2540Y48768D01*
X64468Y48768D02*
X80312Y48768D01*
X89868Y48768D02*
X105712Y48768D01*
X115268Y48768D02*
X131112Y48768D01*
X152665Y48768D02*
X180140Y48768D01*
X51308Y54864D02*
X-2540Y54864D01*
X73152Y54864D02*
X76708Y54864D01*
X98552Y54864D02*
X102108Y54864D01*
X123952Y54864D02*
X127508Y54864D01*
X153467Y54864D02*
X180140Y54864D01*
X51308Y60960D02*
X-2540Y60960D01*
X153467Y60960D02*
X180140Y60960D01*
X51308Y67056D02*
X-2540Y67056D01*
X153467Y67056D02*
X180140Y67056D01*
X51972Y73152D02*
X-2540Y73152D01*
X72488Y73152D02*
X77372Y73152D01*
X97888Y73152D02*
X102772Y73152D01*
X123288Y73152D02*
X128172Y73152D01*
X153467Y73152D02*
X180140Y73152D01*
X20324Y79248D02*
X-2540Y79248D01*
X24638Y79248D02*
X26162Y79248D01*
X30476Y79248D02*
X142991Y79248D01*
X153467Y79248D02*
X173443Y79248D01*
X14986Y85344D02*
X-2540Y85344D01*
X24638Y85344D02*
X26162Y85344D01*
X35814Y85344D02*
X136895Y85344D01*
X149109Y85344D02*
X167894Y85344D01*
X14986Y91440D02*
X-2540Y91440D01*
X24638Y91440D02*
X26162Y91440D01*
X35814Y91440D02*
X130799Y91440D01*
X143013Y91440D02*
X167894Y91440D01*
X19308Y97536D02*
X-2540Y97536D01*
X24638Y97536D02*
X26162Y97536D01*
X31492Y97536D02*
X124703Y97536D01*
X136917Y97536D02*
X172427Y97536D01*
X118607Y103632D02*
X-2540Y103632D01*
X130821Y103632D02*
X166638Y103632D01*
X762Y109728D02*
X-762Y109728D01*
X10414Y109728D02*
X15963Y109728D01*
X34837Y109728D02*
X112511Y109728D01*
X124725Y109728D02*
X142494Y109728D01*
X762Y115824D02*
X-762Y115824D01*
X10414Y115824D02*
X15494Y115824D01*
X35306Y115824D02*
X106415Y115824D01*
X118629Y115824D02*
X142494Y115824D01*
X166660Y115824D02*
X167894Y115824D01*
X762Y121920D02*
X-762Y121920D01*
X10276Y121920D02*
X19011Y121920D01*
X31789Y121920D02*
X100319Y121920D01*
X112533Y121920D02*
X142494Y121920D01*
X162306Y121920D02*
X171411Y121920D01*
X15254Y128016D02*
X-2540Y128016D01*
X27468Y128016D02*
X94223Y128016D01*
X106437Y128016D02*
X167654Y128016D01*
X88127Y134112D02*
X33821Y134112D01*
X100341Y134112D02*
X142494Y134112D01*
X82031Y140208D02*
X35306Y140208D01*
X94245Y140208D02*
X142494Y140208D01*
X167676Y140208D02*
X167894Y140208D01*
X75935Y146304D02*
X32805Y146304D01*
X88149Y146304D02*
X142494Y146304D01*
X162306Y146304D02*
X170395Y146304D01*
X69839Y152400D02*
X28484Y152400D01*
X82053Y152400D02*
X168670Y152400D01*
X63743Y158496D02*
X32805Y158496D01*
X75957Y158496D02*
X142494Y158496D01*
X162306Y158496D02*
X162574Y158496D01*
X57647Y164592D02*
X35306Y164592D01*
X69861Y164592D02*
X142494Y164592D01*
X51551Y170688D02*
X33821Y170688D01*
X63765Y170688D02*
X142494Y170688D01*
X162306Y170688D02*
X169379Y170688D01*
X45455Y176784D02*
X29500Y176784D01*
X57669Y176784D02*
X169686Y176784D01*
X39359Y182880D02*
X31789Y182880D01*
X51573Y182880D02*
X142494Y182880D01*
X162306Y182880D02*
X163590Y182880D01*
X142494Y188976D02*
X45477Y188976D01*
X39395Y195072D02*
X142494Y195072D01*
X162306Y195072D02*
X168363Y195072D01*
X170702Y201168D02*
X39395Y201168D01*
X39395Y207264D02*
X143158Y207264D01*
X161642Y207264D02*
X164606Y207264D01*
X142494Y213360D02*
X39395Y213360D01*
X39395Y219456D02*
X142494Y219456D01*
X164628Y219456D02*
X167894Y219456D01*
X144174Y225552D02*
X39395Y225552D01*
X160626Y225552D02*
X171719Y225552D01*
X144174Y231648D02*
X39395Y231648D01*
X160626Y231648D02*
X165623Y231648D01*
X142494Y237744D02*
X39395Y237744D01*
X162306Y237744D02*
X163805Y237744D01*
X142494Y243840D02*
X39395Y243840D01*
X162306Y243840D02*
X163805Y243840D01*
X143158Y249936D02*
X39395Y249936D01*
X39395Y256032D02*
X157759Y256032D01*
X142494Y262128D02*
X39395Y262128D01*
X39395Y268224D02*
X142494Y268224D01*
X142494Y274320D02*
X39395Y274320D01*
X162306Y274320D02*
X163590Y274320D01*
X169686Y280416D02*
X39395Y280416D01*
X39395Y286512D02*
X142494Y286512D01*
X162306Y286512D02*
X169379Y286512D01*
X142494Y292608D02*
X39395Y292608D01*
X162306Y292608D02*
X167894Y292608D01*
X142494Y298704D02*
X39395Y298704D01*
X162306Y298704D02*
X170395Y298704D01*
X180140Y304800D02*
X39395Y304800D01*
X39395Y310896D02*
X142494Y310896D01*
X162306Y310896D02*
X170395Y310896D01*
X142494Y316992D02*
X39395Y316992D01*
X162306Y316992D02*
X167894Y316992D01*
X140539Y323088D02*
X39395Y323088D01*
X162306Y323088D02*
X169379Y323088D01*
X136627Y329184D02*
X39395Y329184D01*
X157607Y329184D02*
X169686Y329184D01*
X136627Y335280D02*
X39395Y335280D01*
X162306Y335280D02*
X163590Y335280D01*
X136627Y341376D02*
X39395Y341376D01*
X39395Y347472D02*
X136627Y347472D01*
X136627Y353568D02*
X39395Y353568D01*
X39395Y359664D02*
X136627Y359664D01*
X136627Y365760D02*
X39395Y365760D01*
X39395Y371856D02*
X136627Y371856D01*
X136627Y377952D02*
X37577Y377952D01*
X31481Y384048D02*
X136626Y384048D01*
X142494Y390144D02*
X35306Y390144D01*
X15494Y396240D02*
X13244Y396240D01*
X35306Y396240D02*
X142494Y396240D01*
X20027Y402336D02*
X5373Y402336D01*
X30773Y402336D02*
X143158Y402336D01*
X159768Y408432D02*
X-2540Y408432D01*
X-2540Y414528D02*
X15494Y414528D01*
X35306Y414528D02*
X87551Y414528D01*
X91773Y414528D02*
X168363Y414528D01*
X15494Y420624D02*
X-2540Y420624D01*
X35306Y420624D02*
X73295Y420624D01*
X106029Y420624D02*
X167894Y420624D01*
X15494Y426720D02*
X-2540Y426720D01*
X35306Y426720D02*
X68328Y426720D01*
X110995Y426720D02*
X171411Y426720D01*
X0Y113538D02*
X0Y8890D01*
X0Y115062D02*
X0Y129794D01*
X0Y403606D02*
X0Y427228D01*
X6096Y103886D02*
X6096Y8890D01*
X6096Y113538D02*
X6096Y115062D01*
X6096Y124714D02*
X6096Y129794D01*
X6096Y401613D02*
X6096Y427228D01*
X12192Y131078D02*
X12192Y8890D01*
X12192Y397292D02*
X12192Y427228D01*
X18288Y81284D02*
X18288Y8890D01*
X18288Y88138D02*
X18288Y89662D01*
X18288Y96516D02*
X18288Y107403D01*
X18288Y121197D02*
X18288Y124982D01*
X18288Y400597D02*
X18288Y409194D01*
X24384Y78486D02*
X24384Y8890D01*
X24384Y88138D02*
X24384Y89662D01*
X24384Y99314D02*
X24384Y104394D01*
X24384Y403606D02*
X24384Y409194D01*
X30480Y79252D02*
X30480Y8890D01*
X30480Y88138D02*
X30480Y89662D01*
X30480Y98548D02*
X30480Y105371D01*
X30480Y123229D02*
X30480Y130771D01*
X30480Y148629D02*
X30480Y156171D01*
X30480Y174029D02*
X30480Y181571D01*
X30480Y402629D02*
X30480Y409194D01*
X36576Y185663D02*
X36576Y8890D01*
X36576Y378953D02*
X36576Y427228D01*
X42672Y179567D02*
X42672Y8890D01*
X42672Y191781D02*
X42672Y427228D01*
X48768Y33576D02*
X48768Y8890D01*
X48768Y42624D02*
X48768Y173471D01*
X48768Y185685D02*
X48768Y427228D01*
X54864Y13970D02*
X54864Y11430D01*
X54864Y21498D02*
X54864Y27480D01*
X54864Y48720D02*
X54864Y52578D01*
X54864Y74422D02*
X54864Y167375D01*
X54864Y179589D02*
X54864Y427228D01*
X60960Y27178D02*
X60960Y13970D01*
X60960Y49022D02*
X60960Y52578D01*
X60960Y74422D02*
X60960Y161279D01*
X60960Y173493D02*
X60960Y427228D01*
X67056Y13970D02*
X67056Y11430D01*
X67056Y24038D02*
X67056Y30020D01*
X67056Y46180D02*
X67056Y52578D01*
X67056Y74422D02*
X67056Y155183D01*
X67056Y167397D02*
X67056Y427228D01*
X73152Y13970D02*
X73152Y11430D01*
X73152Y17942D02*
X73152Y58293D01*
X73152Y68707D02*
X73152Y149087D01*
X73152Y161301D02*
X73152Y420794D01*
X79248Y13970D02*
X79248Y11430D01*
X79248Y20482D02*
X79248Y28496D01*
X79248Y47704D02*
X79248Y52578D01*
X79248Y74422D02*
X79248Y142991D01*
X79248Y155205D02*
X79248Y416808D01*
X85344Y13970D02*
X85344Y11430D01*
X85344Y24130D02*
X85344Y27178D01*
X85344Y49022D02*
X85344Y52578D01*
X85344Y74422D02*
X85344Y136895D01*
X85344Y149109D02*
X85344Y414917D01*
X91440Y13970D02*
X91440Y11430D01*
X91440Y24130D02*
X91440Y29004D01*
X91440Y47196D02*
X91440Y52578D01*
X91440Y74422D02*
X91440Y130799D01*
X91440Y143013D02*
X91440Y414469D01*
X97536Y13970D02*
X97536Y11430D01*
X97536Y18958D02*
X97536Y53496D01*
X97536Y73504D02*
X97536Y124703D01*
X97536Y136917D02*
X97536Y415544D01*
X103632Y13970D02*
X103632Y11430D01*
X103632Y19466D02*
X103632Y29512D01*
X103632Y46688D02*
X103632Y52988D01*
X103632Y74012D02*
X103632Y118607D01*
X103632Y130821D02*
X103632Y418861D01*
X109728Y13970D02*
X109728Y11430D01*
X109728Y24130D02*
X109728Y27178D01*
X109728Y49022D02*
X109728Y52578D01*
X109728Y74422D02*
X109728Y112511D01*
X109728Y124725D02*
X109728Y425032D01*
X115824Y13970D02*
X115824Y11430D01*
X115824Y24130D02*
X115824Y27988D01*
X115824Y48212D02*
X115824Y52578D01*
X115824Y74422D02*
X115824Y106415D01*
X115824Y118629D02*
X115824Y427228D01*
X121920Y13970D02*
X121920Y11430D01*
X121920Y19974D02*
X121920Y52578D01*
X121920Y74422D02*
X121920Y100319D01*
X121920Y112533D02*
X121920Y427228D01*
X128016Y13970D02*
X128016Y11430D01*
X128016Y18450D02*
X128016Y30528D01*
X128016Y45672D02*
X128016Y54004D01*
X128016Y72996D02*
X128016Y94223D01*
X128016Y106437D02*
X128016Y427228D01*
X134112Y13970D02*
X134112Y11430D01*
X134112Y24130D02*
X134112Y27178D01*
X134112Y74422D02*
X134112Y88127D01*
X134112Y100341D02*
X134112Y427228D01*
X140208Y13970D02*
X140208Y11430D01*
X140208Y24130D02*
X140208Y27178D01*
X140208Y74422D02*
X140208Y82031D01*
X140208Y94245D02*
X140208Y323419D01*
X140208Y387781D02*
X140208Y427228D01*
X146304Y13970D02*
X146304Y11430D01*
X146304Y20990D02*
X146304Y33068D01*
X146304Y43132D02*
X146304Y44475D01*
X146304Y88149D02*
X146304Y104394D01*
X146304Y124206D02*
X146304Y129794D01*
X146304Y149606D02*
X146304Y155194D01*
X146304Y175006D02*
X146304Y180594D01*
X146304Y200406D02*
X146304Y205994D01*
X146304Y225806D02*
X146304Y231394D01*
X146304Y251206D02*
X146304Y256794D01*
X146304Y276606D02*
X146304Y282194D01*
X146304Y302006D02*
X146304Y307594D01*
X146304Y403606D02*
X146304Y427228D01*
X152400Y48503D02*
X152400Y8890D01*
X152400Y82053D02*
X152400Y104394D01*
X152400Y124206D02*
X152400Y129794D01*
X152400Y149606D02*
X152400Y155194D01*
X152400Y175006D02*
X152400Y180594D01*
X152400Y200406D02*
X152400Y205994D01*
X152400Y225806D02*
X152400Y231394D01*
X152400Y255295D02*
X152400Y256794D01*
X152400Y276606D02*
X152400Y282194D01*
X152400Y302006D02*
X152400Y307594D01*
X152400Y403606D02*
X152400Y427228D01*
X158496Y104394D02*
X158496Y8890D01*
X158496Y124206D02*
X158496Y129794D01*
X158496Y149606D02*
X158496Y155194D01*
X158496Y175006D02*
X158496Y180594D01*
X158496Y200406D02*
X158496Y205994D01*
X158496Y225806D02*
X158496Y231394D01*
X158496Y276606D02*
X158496Y282194D01*
X158496Y302006D02*
X158496Y307594D01*
X158496Y327406D02*
X158496Y332994D01*
X158496Y407160D02*
X158496Y427228D01*
X164592Y105678D02*
X164592Y8890D01*
X164592Y117892D02*
X164592Y131078D01*
X164592Y143292D02*
X164592Y156478D01*
X164592Y168692D02*
X164592Y181878D01*
X164592Y194092D02*
X164592Y207278D01*
X164592Y219492D02*
X164592Y232679D01*
X164592Y275322D02*
X164592Y334278D01*
X164592Y413256D02*
X164592Y427228D01*
X170688Y82003D02*
X170688Y8890D01*
X170688Y95797D02*
X170688Y99582D01*
X170688Y121197D02*
X170688Y124982D01*
X170688Y146597D02*
X170688Y150382D01*
X170688Y171997D02*
X170688Y175782D01*
X170688Y197397D02*
X170688Y201182D01*
X170688Y222797D02*
X170688Y226583D01*
X170688Y281418D02*
X170688Y285203D01*
X170688Y298997D02*
X170688Y310603D01*
X170688Y324397D02*
X170688Y328182D01*
X170688Y425997D02*
X170688Y427228D01*
X176784Y78994D02*
X176784Y8890D01*
X176784Y302006D02*
X176784Y307594D01*
D16*
X162966Y393700D02*
X152400Y393700D01*
X177800Y408534D02*
X177800Y419100D01*
X177800Y408534D02*
X167234Y408534D01*
X162966Y404266D01*
X162966Y393700D01*
X138430Y63500D02*
X113030Y63500D01*
X87630Y63500D01*
X62230Y63500D01*
X152400Y317500D02*
X152400Y328066D01*
X152400Y383134D02*
X152400Y393700D01*
X152400Y383134D02*
X142926Y383134D01*
X141834Y382041D01*
X141834Y329159D01*
X142926Y328066D01*
X152400Y328066D01*
D14*
X9677Y215900D02*
X0Y215900D01*
X25400Y200177D02*
X25400Y190500D01*
X25400Y200177D02*
X9677Y215900D01*
X9677Y241300D02*
X0Y241300D01*
X25400Y225577D02*
X25400Y215900D01*
X25400Y225577D02*
X9677Y241300D01*
X9677Y266700D02*
X0Y266700D01*
X25400Y250977D02*
X25400Y241300D01*
X25400Y250977D02*
X9677Y266700D01*
X9677Y292100D02*
X0Y292100D01*
X25400Y276377D02*
X25400Y266700D01*
X25400Y276377D02*
X9677Y292100D01*
X9677Y317500D02*
X0Y317500D01*
X25400Y301777D02*
X25400Y292100D01*
X25400Y301777D02*
X9677Y317500D01*
X9677Y342900D02*
X0Y342900D01*
X25400Y327177D02*
X25400Y317500D01*
X25400Y327177D02*
X9677Y342900D01*
X9677Y368300D02*
X0Y368300D01*
X25400Y352577D02*
X25400Y342900D01*
X25400Y352577D02*
X9677Y368300D01*
X9677Y393700D02*
X0Y393700D01*
X25400Y377977D02*
X25400Y368300D01*
X25400Y377977D02*
X9677Y393700D01*
X152400Y368300D02*
X162077Y368300D01*
X177800Y352577D02*
X177800Y342900D01*
X177800Y352577D02*
X162077Y368300D01*
X162077Y342900D02*
X152400Y342900D01*
X177800Y327177D02*
X177800Y317500D01*
X177800Y327177D02*
X162077Y342900D01*
X152400Y250977D02*
X152400Y241300D01*
X177800Y282423D02*
X177800Y292100D01*
X177800Y282423D02*
X162077Y266700D01*
X162077Y251536D01*
X161519Y250977D01*
X152400Y250977D01*
X135890Y48793D02*
X135890Y38100D01*
X25400Y384023D02*
X25400Y393700D01*
X25400Y384023D02*
X35077Y374345D01*
X35077Y193269D01*
X149149Y79197D01*
X149149Y51359D01*
X146583Y48793D01*
X135890Y48793D01*
X177800Y257023D02*
X177800Y266700D01*
X177800Y225577D02*
X177800Y215900D01*
X168123Y247345D02*
X177800Y257023D01*
X168123Y247345D02*
X168123Y235255D01*
X177800Y225577D01*
M02*
